<svg width="current" height="current" viewBox="0 0 994 373" fill="none" xmlns="http://www.w3.org/2000/svg">
<path d="M75.3199 200.376C71.6199 200.376 67.9399 198.926 65.1799 196.036L35.9699 165.386C24.4199 153.266 22.1899 134.666 30.5699 120.166L39.5299 104.636C47.8999 90.1365 65.1199 82.7665 81.3899 86.7065L122.54 96.6765C130.05 98.4965 134.67 106.066 132.85 113.576C131.03 121.096 123.46 125.706 115.95 123.886L74.7999 113.916C70.5199 112.876 65.9899 114.816 63.7799 118.636L54.8199 134.166C52.6199 137.986 53.1999 142.876 56.2399 146.066L85.4499 176.716C90.7799 182.316 90.5699 191.176 84.9799 196.506C82.2699 199.086 78.7899 200.376 75.3199 200.376Z" fill="url(#paint0_linear_2436_5777)"/>
<path d="M16 117.396C24.8366 117.396 32 110.233 32 101.396C32 92.5599 24.8366 85.3965 16 85.3965C7.16344 85.3965 0 92.5599 0 101.396C0 110.233 7.16344 117.396 16 117.396Z" fill="url(#paint1_linear_2436_5777)"/>
<path d="M172.15 334.316H154.22C137.47 334.316 122.48 323.096 117.76 307.026L105.82 266.406C103.64 258.986 107.89 251.206 115.31 249.026C122.72 246.846 130.51 251.096 132.69 258.516L144.63 299.136C145.87 303.366 149.82 306.316 154.22 306.316H172.15C176.56 306.316 180.5 303.366 181.74 299.136L193.68 258.516C195.86 251.096 203.64 246.856 211.06 249.026C218.48 251.206 222.73 258.986 220.55 266.406L208.61 307.026C203.89 323.096 188.9 334.316 172.15 334.316Z" fill="url(#paint2_linear_2436_5777)"/>
<path d="M163.18 372.316C172.017 372.316 179.18 365.153 179.18 356.316C179.18 347.48 172.017 340.316 163.18 340.316C154.344 340.316 147.18 347.48 147.18 356.316C147.18 365.153 154.344 372.316 163.18 372.316Z" fill="url(#paint3_linear_2436_5777)"/>
<path d="M251.04 200.376C247.57 200.376 244.09 199.096 241.38 196.506C235.78 191.176 235.57 182.306 240.91 176.716L270.12 146.066C273.16 142.876 273.74 137.986 271.54 134.166L262.57 118.636C260.37 114.816 255.84 112.886 251.55 113.916L210.4 123.896C202.88 125.716 195.32 121.106 193.5 113.586C191.68 106.076 196.29 98.5065 203.81 96.6865L244.96 86.7165C261.24 82.7765 278.45 90.1465 286.82 104.646L295.79 120.176C304.16 134.676 301.94 153.276 290.39 165.396L261.18 196.046C258.43 198.936 254.74 200.386 251.04 200.386V200.376Z" fill="url(#paint4_linear_2436_5777)"/>
<path d="M310.36 117.396C319.196 117.396 326.36 110.233 326.36 101.396C326.36 92.5599 319.196 85.3965 310.36 85.3965C301.523 85.3965 294.36 92.5599 294.36 101.396C294.36 110.233 301.523 117.396 310.36 117.396Z" fill="url(#paint5_linear_2436_5777)"/>
<path d="M163.19 130.876C132.6 130.876 107.09 156.046 107.09 186.976C107.09 207.626 118.39 226.556 136.57 236.366C138.46 237.386 140.49 237.866 142.5 237.866C146.95 237.866 151.25 235.486 153.51 231.306C156.79 225.226 154.52 217.646 148.45 214.366C140.16 209.896 134.46 202.006 132.69 192.996C141.57 197.466 152.02 199.986 162.96 199.986C173.9 199.986 184.77 197.376 193.76 192.736C192.18 201.206 187.16 208.676 179.66 213.366C173.81 217.026 172.03 224.736 175.69 230.596C179.35 236.446 187.06 238.226 192.92 234.566C209.44 224.236 219.3 206.446 219.3 186.976C219.3 156.046 194.13 130.876 163.2 130.876H163.19ZM138.91 167.576C144.61 160.446 153.38 155.876 163.19 155.876C173 155.876 181.59 160.356 187.29 167.356C181.39 172.096 172.49 174.986 162.95 174.986C153.41 174.986 144.8 172.196 138.9 167.586L138.91 167.576Z" fill="url(#paint6_linear_2436_5777)"/>
<path d="M207.1 124.297C201.025 124.297 195.47 120.337 193.67 114.237L181.73 73.6165C180.49 69.3865 176.54 66.4365 172.14 66.4365H154.21C149.8 66.4365 145.86 69.3865 144.62 73.6165L132.68 114.237C130.5 121.657 122.72 125.907 115.3 123.727C107.88 121.547 103.63 113.767 105.81 106.347L117.75 65.7265C122.47 49.6565 137.46 38.4365 154.21 38.4365H172.14C188.89 38.4365 203.88 49.6565 208.6 65.7265L220.54 106.347C222.72 113.767 218.47 121.547 211.05 123.727C209.73 124.117 208.4 124.297 207.1 124.297Z" fill="url(#paint7_linear_2436_5777)"/>
<path d="M163.18 32.4365C172.017 32.4365 179.18 25.2731 179.18 16.4365C179.18 7.59997 172.017 0.436523 163.18 0.436523C154.344 0.436523 147.18 7.59997 147.18 16.4365C147.18 25.2731 154.344 32.4365 163.18 32.4365Z" fill="url(#paint8_linear_2436_5777)"/>
<path d="M72.56 287.096C59.2 287.096 46.4 279.996 39.53 268.106L30.56 252.576C22.19 238.076 24.41 219.476 35.96 207.356L65.17 176.706C70.5 171.106 79.37 170.896 84.96 176.236C90.56 181.566 90.77 190.436 85.43 196.026L56.22 226.676C53.18 229.866 52.6 234.756 54.8 238.576L63.77 254.106C65.97 257.926 70.5 259.866 74.79 258.826L115.94 248.856C123.46 247.026 131.02 251.646 132.84 259.166C134.66 266.676 130.05 274.246 122.53 276.066L81.38 286.046C78.45 286.756 75.48 287.096 72.54 287.096H72.56Z" fill="url(#paint9_linear_2436_5777)"/>
<path d="M16 287.346C24.8366 287.346 32 280.183 32 271.346C32 262.51 24.8366 255.346 16 255.346C7.16344 255.346 0 262.51 0 271.346C0 280.183 7.16344 287.346 16 287.346Z" fill="url(#paint10_linear_2436_5777)"/>
<path d="M253.8 287.096C250.86 287.096 247.9 286.756 244.96 286.036L203.81 276.056C196.3 274.236 191.68 266.666 193.5 259.156C195.32 251.636 202.89 247.026 210.4 248.846L251.55 258.826C255.83 259.866 260.36 257.926 262.57 254.106L271.54 238.576C273.74 234.756 273.16 229.866 270.12 226.676L240.91 196.026C235.58 190.426 235.79 181.566 241.38 176.236C246.98 170.896 255.84 171.116 261.17 176.706L290.38 207.356C301.93 219.476 304.16 238.066 295.78 252.576L286.81 268.106C279.95 279.996 267.14 287.086 253.79 287.096H253.8Z" fill="url(#paint11_linear_2436_5777)"/>
<path d="M310.36 287.346C319.196 287.346 326.36 280.183 326.36 271.346C326.36 262.51 319.196 255.346 310.36 255.346C301.523 255.346 294.36 262.51 294.36 271.346C294.36 280.183 301.523 287.346 310.36 287.346Z" fill="url(#paint12_linear_2436_5777)"/>
<path fill-rule="evenodd" clip-rule="evenodd" d="M542.268 208.475H570.154L584.999 243.619C585.77 245.753 586.682 247.172 587.725 247.868C588.769 248.564 590.555 248.912 593.084 248.912H611.728C614.37 248.912 616.184 248.517 617.172 247.727C618.168 246.928 618.215 245.565 617.341 243.609L598.866 201.076C605.579 197.55 610.825 193.009 614.624 187.481C618.413 181.953 620.312 174.582 620.312 165.378C620.312 150.598 616.109 139.974 607.695 133.515C599.28 127.056 586.325 123.822 568.837 123.822H532.378C527.762 123.822 524.132 124.245 521.491 125.082C518.849 125.919 516.837 127.103 515.464 128.636C514.082 130.168 513.208 132.03 512.822 134.211C512.437 136.402 512.249 138.79 512.249 141.394V245.433C512.249 246.834 512.578 247.755 513.236 248.225C513.894 248.686 514.994 248.921 516.536 248.921H537.981C539.523 248.921 540.623 248.686 541.281 248.225C541.939 247.755 542.268 246.824 542.268 245.433V208.475ZM568.828 147.533C583.015 147.533 590.113 153.579 590.113 165.66H590.123C590.123 171.338 588.496 175.936 585.253 179.471C582 183.006 576.697 184.773 569.326 184.773H542.268V154.509C542.268 151.811 542.814 149.978 543.914 149C545.014 148.022 547.044 147.533 550.015 147.533H568.828ZM418.194 227.166H465.879L470.167 244.596C470.721 246.448 471.379 247.642 472.15 248.15C472.921 248.667 474.52 248.921 476.936 248.921H496.567C498.879 248.921 500.393 248.573 501.108 247.878C501.822 247.182 501.897 245.856 501.352 243.901L472.15 130.516C471.925 129.68 471.652 128.862 471.323 128.072C470.994 127.282 470.496 126.558 469.838 125.909C469.179 125.261 468.211 124.753 466.951 124.377C465.682 124.01 464.065 123.822 462.081 123.822H421.992C420.009 123.822 418.382 124.01 417.122 124.377C415.863 124.744 414.894 125.261 414.236 125.909C413.578 126.558 413.08 127.282 412.751 128.072C412.422 128.862 412.139 129.68 411.923 130.516L382.722 243.901C382.167 245.856 382.252 247.182 382.966 247.878C383.681 248.573 385.194 248.921 387.507 248.921H407.138C409.554 248.921 411.152 248.658 411.923 248.15C412.694 247.642 413.352 246.458 413.907 244.596L418.194 227.166ZM460.097 203.878H423.967H423.957L437.985 146.838H446.07L460.097 203.878ZM638.128 248.921C636.586 248.921 635.486 248.686 634.828 248.225C634.169 247.755 633.84 246.834 633.84 245.433V127.31C633.84 125.919 634.169 124.988 634.828 124.518C635.486 124.057 636.586 123.822 638.128 123.822H661.228C662.769 123.822 663.869 124.057 664.527 124.518C665.186 124.988 665.515 125.909 665.515 127.31V245.433C665.515 246.824 665.186 247.755 664.527 248.225C663.869 248.686 662.769 248.921 661.228 248.921H638.128ZM694.726 247.661C697.368 248.508 700.997 248.921 705.613 248.921V248.912H743.229C750.487 248.912 757.031 248.207 762.86 246.815C768.689 245.424 773.663 243.299 777.79 240.469C781.917 237.639 785.076 233.991 787.276 229.526C789.476 225.06 790.576 219.767 790.576 213.627C790.576 209.538 790.219 205.974 789.504 202.956C788.78 199.938 787.662 197.287 786.12 195.012C784.578 192.737 782.622 190.781 780.263 189.155C777.893 187.538 775.063 186.118 771.763 184.905C774.189 183.42 776.304 181.812 778.119 180.091C779.934 178.371 781.419 176.368 782.575 174.093C783.732 171.818 784.616 169.195 785.217 166.215C785.828 163.244 786.129 159.709 786.129 155.619C786.129 149.95 785.029 145.089 782.829 141.046C780.62 137.004 777.517 133.704 773.503 131.146C769.479 128.589 764.675 126.737 759.062 125.571C753.458 124.415 747.291 123.832 740.587 123.832H705.444C701.589 123.832 698.402 124.133 695.873 124.734C693.344 125.345 691.313 126.342 689.771 127.733C688.229 129.134 687.13 130.949 686.471 133.177C685.813 135.405 685.484 138.104 685.484 141.263V231.349C685.484 233.954 685.672 236.351 686.058 238.532C686.443 240.714 687.327 242.575 688.7 244.108C690.082 245.64 692.084 246.825 694.726 247.661ZM715.513 175.56V145.719H738.284C749.5 145.719 755.113 150.41 755.113 159.803C755.113 164.729 753.825 168.584 751.24 171.376C748.654 174.168 744.442 175.56 738.613 175.56H715.513ZM715.513 227.025V197.043V197.033H740.926C746.868 197.033 751.409 198.246 754.54 200.662C757.67 203.088 759.24 206.802 759.24 211.822C759.24 221.957 753.139 227.025 740.926 227.025H715.513ZM837.274 218.234C837.274 220.932 837.82 222.766 838.929 223.743C840.029 224.721 842.06 225.21 845.031 225.21H884.132C885.674 225.21 886.774 225.445 887.432 225.906C888.09 226.376 888.419 227.297 888.419 228.698V245.433C888.419 246.824 888.09 247.755 887.432 248.225C886.774 248.686 885.674 248.921 884.132 248.921H825.56C820.943 248.921 817.314 248.507 814.673 247.661C812.031 246.824 810.028 245.64 808.646 244.107C807.273 242.575 806.39 240.713 806.004 238.532C805.619 236.351 805.431 233.954 805.431 231.349V127.31C805.431 125.919 805.76 124.988 806.418 124.518C807.076 124.057 808.176 123.822 809.718 123.822H832.978C834.52 123.822 835.62 124.057 836.278 124.518C836.936 124.988 837.265 125.909 837.265 127.31V218.234H837.274ZM983.451 175.701H930.162V154.519C930.162 151.821 930.707 149.987 931.807 149.009C932.907 148.032 934.938 147.543 937.909 147.543H989.712C991.254 147.543 992.354 147.317 993.012 146.847C993.671 146.377 994 145.446 994 144.055V127.32C994 125.919 993.671 124.998 993.012 124.528C992.354 124.067 991.254 123.832 989.712 123.832H920.253C915.637 123.832 912.007 124.255 909.366 125.092C906.724 125.928 904.712 127.113 903.339 128.645C901.957 130.178 901.083 132.039 900.697 134.221C900.312 136.411 900.124 138.799 900.124 141.404V231.359C900.124 233.963 900.312 236.361 900.697 238.542C901.083 240.723 901.966 242.584 903.339 244.117C904.721 245.649 906.724 246.834 909.366 247.671C912.007 248.517 915.637 248.931 920.253 248.931H989.712C991.254 248.931 992.354 248.696 993.012 248.235C993.671 247.765 994 246.834 994 245.443V228.708C994 227.307 993.671 226.385 993.012 225.915C992.354 225.455 991.254 225.22 989.712 225.22H937.909C934.938 225.22 932.907 224.731 931.807 223.753C930.707 222.775 930.162 220.942 930.162 218.243V199.412H983.451C984.993 199.412 986.093 199.186 986.751 198.716C987.409 198.246 987.738 197.315 987.738 195.924V179.189C987.738 177.788 987.409 176.867 986.751 176.397C986.093 175.936 984.993 175.701 983.451 175.701Z" fill="url(#paint13_linear_2436_5777)"/>
<defs>
<linearGradient id="paint0_linear_2436_5777" x1="40.5399" y1="171.396" x2="120.35" y2="91.5865" gradientUnits="userSpaceOnUse">
<stop stop-color="#4200FF"/>
<stop offset="1" stop-color="#6360FF"/>
</linearGradient>
<linearGradient id="paint1_linear_2436_5777" x1="4.69" y1="112.716" x2="27.32" y2="90.0865" gradientUnits="userSpaceOnUse">
<stop stop-color="#4200FF"/>
<stop offset="1" stop-color="#6360FF"/>
</linearGradient>
<linearGradient id="paint2_linear_2436_5777" x1="208.52" y1="309.296" x2="109.16" y2="251.926" gradientUnits="userSpaceOnUse">
<stop stop-color="#4200FF"/>
<stop offset="1" stop-color="#6360FF"/>
</linearGradient>
<linearGradient id="paint3_linear_2436_5777" x1="177.04" y1="364.316" x2="149.32" y2="348.316" gradientUnits="userSpaceOnUse">
<stop stop-color="#4200FF"/>
<stop offset="1" stop-color="#6360FF"/>
</linearGradient>
<linearGradient id="paint4_linear_2436_5777" x1="193.11" y1="143.016" x2="300.83" y2="143.016" gradientUnits="userSpaceOnUse">
<stop stop-color="#4200FF"/>
<stop offset="1" stop-color="#6360FF"/>
</linearGradient>
<linearGradient id="paint5_linear_2436_5777" x1="294.36" y1="101.396" x2="326.36" y2="101.396" gradientUnits="userSpaceOnUse">
<stop stop-color="#4200FF"/>
<stop offset="1" stop-color="#6360FF"/>
</linearGradient>
<linearGradient id="paint6_linear_2436_5777" x1="135.16" y1="235.576" x2="191.26" y2="138.416" gradientUnits="userSpaceOnUse">
<stop stop-color="#4200FF"/>
<stop offset="1" stop-color="#6360FF"/>
</linearGradient>
<linearGradient id="paint7_linear_2436_5777" x1="105.25" y1="81.3665" x2="221.11" y2="81.3665" gradientUnits="userSpaceOnUse">
<stop stop-color="#4200FF"/>
<stop offset="1" stop-color="#6360FF"/>
</linearGradient>
<linearGradient id="paint8_linear_2436_5777" x1="147.18" y1="16.4365" x2="179.18" y2="16.4365" gradientUnits="userSpaceOnUse">
<stop stop-color="#4200FF"/>
<stop offset="1" stop-color="#6360FF"/>
</linearGradient>
<linearGradient id="paint9_linear_2436_5777" x1="133.25" y1="229.736" x2="25.53" y2="229.736" gradientUnits="userSpaceOnUse">
<stop stop-color="#4200FF"/>
<stop offset="1" stop-color="#6360FF"/>
</linearGradient>
<linearGradient id="paint10_linear_2436_5777" x1="32.01" y1="271.346" x2="0" y2="271.346" gradientUnits="userSpaceOnUse">
<stop stop-color="#4200FF"/>
<stop offset="1" stop-color="#6360FF"/>
</linearGradient>
<linearGradient id="paint11_linear_2436_5777" x1="246.97" y1="172.376" x2="246.97" y2="287.096" gradientUnits="userSpaceOnUse">
<stop stop-color="#4200FF"/>
<stop offset="1" stop-color="#6360FF"/>
</linearGradient>
<linearGradient id="paint12_linear_2436_5777" x1="310.36" y1="255.346" x2="310.36" y2="287.346" gradientUnits="userSpaceOnUse">
<stop stop-color="#4200FF"/>
<stop offset="1" stop-color="#6360FF"/>
</linearGradient>
<linearGradient id="paint13_linear_2436_5777" x1="382.064" y1="248.479" x2="994.112" y2="248.479" gradientUnits="userSpaceOnUse">
<stop stop-color="#4200FF"/>
<stop offset="1" stop-color="#6360FF"/>
</linearGradient>
</defs>
</svg>
