<svg width="current" height="current" viewBox="0 0 776 373" fill="none" xmlns="http://www.w3.org/2000/svg">
<path d="M75.3199 200.376C71.6199 200.376 67.9399 198.926 65.1799 196.036L35.9699 165.386C24.4199 153.266 22.1899 134.666 30.5699 120.166L39.5299 104.636C47.8999 90.1365 65.1199 82.7665 81.3899 86.7065L122.54 96.6765C130.05 98.4965 134.67 106.066 132.85 113.576C131.03 121.096 123.46 125.706 115.95 123.886L74.7999 113.916C70.5199 112.876 65.9899 114.816 63.7799 118.636L54.8199 134.166C52.6199 137.986 53.1999 142.876 56.2399 146.066L85.4499 176.716C90.7799 182.316 90.5699 191.176 84.9799 196.506C82.2699 199.086 78.7899 200.376 75.3199 200.376Z" fill="url(#paint0_linear_2436_5805)"/>
<path d="M16 117.396C24.8366 117.396 32 110.233 32 101.396C32 92.5599 24.8366 85.3965 16 85.3965C7.16344 85.3965 0 92.5599 0 101.396C0 110.233 7.16344 117.396 16 117.396Z" fill="url(#paint1_linear_2436_5805)"/>
<path d="M172.15 334.316H154.22C137.47 334.316 122.48 323.096 117.76 307.026L105.82 266.406C103.64 258.986 107.89 251.206 115.31 249.026C122.72 246.846 130.51 251.096 132.69 258.516L144.63 299.136C145.87 303.366 149.82 306.316 154.22 306.316H172.15C176.56 306.316 180.5 303.366 181.74 299.136L193.68 258.516C195.86 251.096 203.64 246.856 211.06 249.026C218.48 251.206 222.73 258.986 220.55 266.406L208.61 307.026C203.89 323.096 188.9 334.316 172.15 334.316Z" fill="url(#paint2_linear_2436_5805)"/>
<path d="M163.18 372.316C172.016 372.316 179.18 365.153 179.18 356.316C179.18 347.48 172.016 340.316 163.18 340.316C154.343 340.316 147.18 347.48 147.18 356.316C147.18 365.153 154.343 372.316 163.18 372.316Z" fill="url(#paint3_linear_2436_5805)"/>
<path d="M251.04 200.376C247.57 200.376 244.09 199.096 241.38 196.506C235.78 191.176 235.57 182.306 240.91 176.716L270.12 146.066C273.16 142.876 273.74 137.986 271.54 134.166L262.57 118.636C260.37 114.816 255.84 112.886 251.55 113.916L210.4 123.896C202.88 125.716 195.32 121.106 193.5 113.586C191.68 106.076 196.29 98.5065 203.81 96.6865L244.96 86.7165C261.24 82.7765 278.45 90.1465 286.82 104.646L295.79 120.176C304.16 134.676 301.94 153.276 290.39 165.396L261.18 196.046C258.43 198.936 254.74 200.386 251.04 200.386V200.376Z" fill="url(#paint4_linear_2436_5805)"/>
<path d="M310.36 117.396C319.196 117.396 326.36 110.233 326.36 101.396C326.36 92.5599 319.196 85.3965 310.36 85.3965C301.523 85.3965 294.36 92.5599 294.36 101.396C294.36 110.233 301.523 117.396 310.36 117.396Z" fill="url(#paint5_linear_2436_5805)"/>
<path d="M163.19 130.876C132.26 130.876 107.09 156.046 107.09 186.976C107.09 207.626 118.39 226.556 136.57 236.366C138.46 237.386 140.49 237.866 142.5 237.866C146.95 237.866 151.25 235.486 153.51 231.306C156.79 225.226 154.52 217.646 148.45 214.366C140.16 209.896 134.46 202.006 132.69 192.996C141.57 197.466 152.02 199.986 162.96 199.986C173.9 199.986 184.77 197.376 193.76 192.736C192.18 201.206 187.16 208.676 179.66 213.366C173.81 217.026 172.03 224.736 175.69 230.596C179.35 236.446 187.06 238.226 192.92 234.566C209.44 224.236 219.3 206.446 219.3 186.976C219.3 156.046 194.13 130.876 163.2 130.876H163.19ZM138.91 167.576C144.61 160.446 153.38 155.876 163.19 155.876C173 155.876 181.59 160.356 187.29 167.356C181.39 172.096 172.49 174.986 162.95 174.986C153.41 174.986 144.8 172.196 138.9 167.586L138.91 167.576Z" fill="url(#paint6_linear_2436_5805)"/>
<path d="M207.1 124.297C201.05 124.297 195.47 120.337 193.67 114.237L181.73 73.6165C180.49 69.3865 176.54 66.4365 172.14 66.4365H154.21C149.8 66.4365 145.86 69.3865 144.62 73.6165L132.68 114.237C130.5 121.657 122.72 125.907 115.3 123.727C107.88 121.547 103.63 113.767 105.81 106.347L117.75 65.7265C122.47 49.6565 137.46 38.4365 154.21 38.4365H172.14C188.89 38.4365 203.88 49.6565 208.6 65.7265L220.54 106.347C222.72 113.767 218.47 121.547 211.05 123.727C209.73 124.117 208.4 124.297 207.1 124.297Z" fill="url(#paint7_linear_2436_5805)"/>
<path d="M163.18 32.4365C172.017 32.4365 179.18 25.2731 179.18 16.4365C179.18 7.59997 172.017 0.436523 163.18 0.436523C154.344 0.436523 147.18 7.59997 147.18 16.4365C147.18 25.2731 154.344 32.4365 163.18 32.4365Z" fill="url(#paint8_linear_2436_5805)"/>
<path d="M72.5598 287.096C59.1998 287.096 46.3998 279.996 39.5298 268.106L30.5598 252.576C22.1898 238.076 24.4098 219.476 35.9598 207.356L65.1698 176.706C70.4998 171.106 79.3698 170.896 84.9598 176.236C90.5598 181.566 90.7698 190.436 85.4298 196.026L56.2198 226.676C53.1798 229.866 52.5998 234.756 54.7998 238.576L63.7698 254.106C65.9698 257.926 70.4998 259.866 74.7898 258.826L115.94 248.856C123.46 247.026 131.02 251.646 132.84 259.166C134.66 266.676 130.05 274.246 122.53 276.066L81.3798 286.046C78.4498 286.756 75.4798 287.096 72.5398 287.096H72.5598Z" fill="url(#paint9_linear_2436_5805)"/>
<path d="M16 287.346C24.8366 287.346 32 280.183 32 271.346C32 262.51 24.8366 255.346 16 255.346C7.16344 255.346 0 262.51 0 271.346C0 280.183 7.16344 287.346 16 287.346Z" fill="url(#paint10_linear_2436_5805)"/>
<path d="M253.8 287.096C250.86 287.096 247.9 286.756 244.96 286.036L203.81 276.056C196.3 274.236 191.68 266.666 193.5 259.156C195.32 251.636 202.89 247.026 210.4 248.846L251.55 258.826C255.83 259.866 260.36 257.926 262.57 254.106L271.54 238.576C273.74 234.756 273.16 229.866 270.12 226.676L240.91 196.026C235.58 190.426 235.79 181.566 241.38 176.236C246.98 170.896 255.84 171.116 261.17 176.706L290.38 207.356C301.93 219.476 304.16 238.066 295.78 252.576L286.81 268.106C279.95 279.996 267.14 287.086 253.79 287.096H253.8Z" fill="url(#paint11_linear_2436_5805)"/>
<path d="M310.36 287.346C319.196 287.346 326.36 280.183 326.36 271.346C326.36 262.51 319.196 255.346 310.36 255.346C301.523 255.346 294.36 262.51 294.36 271.346C294.36 280.183 301.523 287.346 310.36 287.346Z" fill="url(#paint12_linear_2436_5805)"/>
<path fill-rule="evenodd" clip-rule="evenodd" d="M457.76 181.97C457.76 191.936 457.022 200.823 455.554 208.657C454.078 216.482 451.716 223.098 448.44 228.506C445.164 233.913 440.873 238.038 435.558 240.889C430.243 243.731 423.747 245.162 416.06 245.162C408.373 245.162 401.877 243.741 396.562 240.889C391.247 238.047 386.956 233.913 383.68 228.506C380.404 223.098 378.032 216.482 376.565 208.657C375.098 200.832 374.36 191.936 374.36 181.97C374.36 172.004 375.098 163.109 376.565 155.284C378.032 147.459 380.404 140.842 383.68 135.435C386.956 130.028 391.247 125.903 396.562 123.051C401.877 120.209 408.373 118.779 416.06 118.779C423.747 118.779 430.243 120.2 435.558 123.051C440.873 125.894 445.164 130.028 448.44 135.435C451.716 140.842 454.087 147.459 455.554 155.284C457.022 163.109 457.76 172.004 457.76 181.97ZM431.147 181.97C431.147 173.241 430.649 166.265 429.652 161.051C428.656 155.838 427.401 151.823 425.878 149.027C424.356 146.231 422.722 144.404 420.969 143.546C419.216 142.688 417.573 142.264 416.06 142.264C414.547 142.264 412.904 142.688 411.151 143.546C409.397 144.404 407.755 146.231 406.242 149.027C404.719 151.823 403.464 155.838 402.467 161.051C401.471 166.274 400.973 173.241 400.973 181.97C400.973 190.7 401.471 197.676 402.467 202.89C403.464 208.112 404.719 212.117 406.242 214.913C407.755 217.709 409.397 219.536 411.151 220.394C412.904 221.253 414.537 221.677 416.06 221.677C417.582 221.677 419.216 221.253 420.969 220.394C422.722 219.536 424.356 217.718 425.878 214.913C427.391 212.117 428.656 208.103 429.652 202.89C430.649 197.676 431.147 190.7 431.147 181.97ZM511.41 187.239C511.41 188.66 511.124 189.611 510.551 190.081C509.979 190.561 509.029 190.792 507.709 190.792H494.615V247.579C494.615 249 494.329 249.951 493.757 250.421C493.185 250.892 492.235 251.132 490.915 251.132H470.992C469.664 251.132 468.713 250.892 468.15 250.421C467.578 249.942 467.292 249 467.292 247.579V122.341C467.292 120.92 467.578 119.969 468.15 119.499C468.722 119.028 469.664 118.788 470.992 118.788H490.915C492.244 118.788 493.194 119.028 493.757 119.499C494.329 119.979 494.615 120.92 494.615 122.341V167.169H507.709C509.038 167.169 509.989 167.409 510.551 167.88C511.124 168.359 511.41 169.301 511.41 170.722V187.23V187.239ZM546.853 210.576C546.853 213.99 547.564 216.509 548.985 218.115C550.406 219.73 553.017 220.487 556.81 220.394C563.832 220.2 570.688 219.942 577.379 219.61C584.069 219.278 590.971 218.779 598.086 218.115C599.414 217.921 600.309 218.097 600.789 218.613C601.26 219.139 601.592 220.108 601.786 221.529L603.207 238.038C603.391 239.459 603.161 240.363 602.496 240.741C601.832 241.12 600.835 241.406 599.507 241.6C590.113 242.356 580.959 242.956 572.036 243.38C563.113 243.805 554.106 244.017 544.999 244.017C535.891 244.017 529.367 241.572 525.427 236.69C521.486 231.8 519.521 224.002 519.521 213.28V172.29C519.521 170.869 519.807 169.919 520.379 169.448C520.951 168.978 521.892 168.738 523.221 168.738H566.342C567.671 168.738 568.621 168.498 569.184 168.027C569.756 167.556 570.043 166.606 570.043 165.185V150.384C570.043 146.776 569.424 144.46 568.188 143.408C566.951 142.365 565.106 141.839 562.633 141.839H523.212C521.883 141.839 520.933 141.608 520.37 141.128C519.798 140.658 519.512 139.707 519.512 138.286V122.35C519.512 120.929 519.798 119.978 520.37 119.508C520.942 119.037 521.883 118.797 523.212 118.797H577.434C581.042 118.797 584.124 119.222 586.689 120.08C589.255 120.938 591.312 122.331 592.881 124.279C594.45 126.226 595.585 128.736 596.295 131.818C597.006 134.9 597.366 138.674 597.366 143.131V188.245C597.366 189.666 597.08 190.616 596.508 191.087C595.935 191.567 594.985 191.798 593.665 191.798H550.544C549.216 191.798 548.265 192.038 547.702 192.508C547.13 192.988 546.844 193.929 546.844 195.35V210.576H546.853ZM616.587 251.132C615.258 251.132 614.308 250.892 613.745 250.421C613.173 249.941 612.887 249 612.887 247.579V122.341C612.887 120.92 613.173 119.969 613.745 119.499C614.317 119.028 615.258 118.788 616.587 118.788H636.51C637.838 118.788 638.789 119.028 639.352 119.499C639.924 119.978 640.21 120.92 640.21 122.341V247.579C640.21 249 639.924 249.951 639.352 250.421C638.78 250.892 637.829 251.132 636.51 251.132H616.587ZM648.81 172.013C648.238 172.484 647.952 173.435 647.952 174.856V187.378C647.952 188.799 648.238 189.749 648.81 190.22C649.373 190.69 650.324 190.93 651.652 190.93H771.769C773.089 190.93 774.039 190.7 774.612 190.22C775.184 189.749 775.47 188.799 775.47 187.378V174.856C775.47 173.435 775.184 172.493 774.612 172.013C774.049 171.543 773.098 171.303 771.769 171.303H651.652C650.324 171.303 649.382 171.543 648.81 172.013ZM767.359 250.135C768.023 249.858 768.263 249.139 768.069 248.004L768.06 248.013L766.777 237.198C766.583 236.155 766.353 235.417 766.067 234.992C765.781 234.568 764.978 234.402 763.649 234.494C758.048 234.965 752.484 235.343 746.928 235.629C741.373 235.915 735.588 236.146 729.562 236.34C723.536 236.524 717.16 236.672 710.424 236.764C703.688 236.856 696.342 236.903 688.37 236.903C685.998 236.903 684.236 236.737 683.101 236.404C681.966 236.072 681.393 235.14 681.393 233.627V231.348H762.652C763.972 231.348 764.923 231.108 765.495 230.637C766.067 230.166 766.353 229.216 766.353 227.795V199.475C766.353 198.054 766.067 197.113 765.495 196.633C764.932 196.162 763.981 195.922 762.652 195.922H660.474C659.145 195.922 658.204 196.162 657.632 196.633C657.06 197.104 656.774 198.054 656.774 199.475V207.448C656.774 210.198 658.01 211.573 660.474 211.573H741.733V215.845H660.474C659.145 215.845 658.204 216.085 657.632 216.556C657.06 217.035 656.774 217.93 656.774 219.259V232.206C656.774 236.284 657.272 239.699 658.269 242.448C659.265 245.198 660.806 247.431 662.892 249.139C664.977 250.846 667.635 252.082 670.865 252.839C674.094 253.596 677.887 253.974 682.252 253.974C690.889 253.974 698.788 253.928 705.948 253.835C713.109 253.743 719.919 253.577 726.369 253.337C732.819 253.097 739.131 252.793 745.295 252.414C751.469 252.027 757.826 251.51 764.369 250.846C765.698 250.652 766.694 250.421 767.359 250.135ZM762.523 162.472C765.079 159.824 766.362 155.505 766.362 149.526H766.371V122.341C766.371 120.92 766.085 119.978 765.513 119.499C764.95 119.028 764 118.788 762.671 118.788H744.169C742.841 118.788 741.899 119.028 741.327 119.499C740.755 119.969 740.469 120.92 740.469 122.341V124.906H682.833V122.341C682.833 120.92 682.547 119.978 681.975 119.499C681.412 119.028 680.461 118.788 679.133 118.788H660.631C659.302 118.788 658.361 119.028 657.789 119.499C657.217 119.969 656.931 120.92 656.931 122.341V149.526C656.931 155.496 658.204 159.814 660.769 162.472C663.326 165.13 667.173 166.458 672.295 166.458H750.998C756.119 166.458 759.958 165.13 762.523 162.472ZM739.611 146.748C739.039 147.366 737.95 147.671 736.335 147.671H686.967C685.352 147.671 684.263 147.366 683.691 146.748C683.119 146.139 682.833 144.921 682.833 143.122V142.263H740.469V143.122C740.469 144.921 740.183 146.13 739.611 146.748Z" fill="url(#paint13_linear_2436_5805)"/>
<defs>
<linearGradient id="paint0_linear_2436_5805" x1="40.5399" y1="171.396" x2="120.35" y2="91.5865" gradientUnits="userSpaceOnUse">
<stop stop-color="#4200FF"/>
<stop offset="1" stop-color="#6360FF"/>
</linearGradient>
<linearGradient id="paint1_linear_2436_5805" x1="4.69" y1="112.716" x2="27.32" y2="90.0865" gradientUnits="userSpaceOnUse">
<stop stop-color="#4200FF"/>
<stop offset="1" stop-color="#6360FF"/>
</linearGradient>
<linearGradient id="paint2_linear_2436_5805" x1="208.52" y1="309.296" x2="109.16" y2="251.926" gradientUnits="userSpaceOnUse">
<stop stop-color="#4200FF"/>
<stop offset="1" stop-color="#6360FF"/>
</linearGradient>
<linearGradient id="paint3_linear_2436_5805" x1="177.04" y1="364.316" x2="149.32" y2="348.316" gradientUnits="userSpaceOnUse">
<stop stop-color="#4200FF"/>
<stop offset="1" stop-color="#6360FF"/>
</linearGradient>
<linearGradient id="paint4_linear_2436_5805" x1="193.11" y1="143.016" x2="300.83" y2="143.016" gradientUnits="userSpaceOnUse">
<stop stop-color="#4200FF"/>
<stop offset="1" stop-color="#6360FF"/>
</linearGradient>
<linearGradient id="paint5_linear_2436_5805" x1="294.36" y1="101.396" x2="326.36" y2="101.396" gradientUnits="userSpaceOnUse">
<stop stop-color="#4200FF"/>
<stop offset="1" stop-color="#6360FF"/>
</linearGradient>
<linearGradient id="paint6_linear_2436_5805" x1="135.16" y1="235.576" x2="191.26" y2="138.416" gradientUnits="userSpaceOnUse">
<stop stop-color="#4200FF"/>
<stop offset="1" stop-color="#6360FF"/>
</linearGradient>
<linearGradient id="paint7_linear_2436_5805" x1="105.25" y1="81.3665" x2="221.11" y2="81.3665" gradientUnits="userSpaceOnUse">
<stop stop-color="#4200FF"/>
<stop offset="1" stop-color="#6360FF"/>
</linearGradient>
<linearGradient id="paint8_linear_2436_5805" x1="147.18" y1="16.4365" x2="179.18" y2="16.4365" gradientUnits="userSpaceOnUse">
<stop stop-color="#4200FF"/>
<stop offset="1" stop-color="#6360FF"/>
</linearGradient>
<linearGradient id="paint9_linear_2436_5805" x1="133.25" y1="229.736" x2="25.5298" y2="229.736" gradientUnits="userSpaceOnUse">
<stop stop-color="#4200FF"/>
<stop offset="1" stop-color="#6360FF"/>
</linearGradient>
<linearGradient id="paint10_linear_2436_5805" x1="32.01" y1="271.346" x2="0" y2="271.346" gradientUnits="userSpaceOnUse">
<stop stop-color="#4200FF"/>
<stop offset="1" stop-color="#6360FF"/>
</linearGradient>
<linearGradient id="paint11_linear_2436_5805" x1="246.97" y1="172.376" x2="246.97" y2="287.096" gradientUnits="userSpaceOnUse">
<stop stop-color="#4200FF"/>
<stop offset="1" stop-color="#6360FF"/>
</linearGradient>
<linearGradient id="paint12_linear_2436_5805" x1="310.36" y1="255.346" x2="310.36" y2="287.346" gradientUnits="userSpaceOnUse">
<stop stop-color="#4200FF"/>
<stop offset="1" stop-color="#6360FF"/>
</linearGradient>
<linearGradient id="paint13_linear_2436_5805" x1="374.028" y1="253.974" x2="775.433" y2="253.974" gradientUnits="userSpaceOnUse">
<stop stop-color="#4200FF"/>
<stop offset="1" stop-color="#6360FF"/>
</linearGradient>
</defs>
</svg>
